<svg width="572" height="234" viewBox="0 0 572 234" fill="none"
    xmlns="http://www.w3.org/2000/svg">
    <g id="layer1">
        <path fill='white' id="Vector 1" d="M4.68411 45.5003C6.24802 56.3004 5.9876 73.8336 5.66172 86.0003C5.61199 88.0003 4.19572 104.5 3.70691 114C3.21811 123.5 5.17334 140.379 5.17334 146.379C5.17334 152.379 5.66172 171.379 5.66172 175.879C5.66172 180.379 2.7293 195 3.21811 205.5C3.70692 216 3.70692 220.879 7.61738 226.379C11.5278 231.879 21.304 230.879 41.8339 230.379C62.3638 229.879 80.4496 226.379 87.2929 226.379C94.1362 226.379 106.845 226.379 120.043 224.879C133.241 223.379 148.883 224.879 162.08 224.879C175.278 224.879 200.207 230.879 218.782 231.879C237.357 232.879 262.775 232.879 276.461 229.379C290.148 225.879 313.611 225.879 325.831 227.879C338.051 229.879 366.891 227.879 374.223 227.879C381.555 227.879 389.376 225.879 400.618 225.879C411.861 225.879 417.727 225.879 431.413 227.879C445.1 229.879 473.939 226.379 483.715 225.879C493.492 225.379 507.178 226.879 512.066 227.879C516.954 228.879 535.04 233.379 551.171 229.379C567.302 225.379 570.001 215.052 570.001 203.879C570.001 184.879 567.001 149.379 567.001 138.379C567.001 127.379 569.257 113.879 569.257 105.879C569.257 97.8794 565.835 75.5 569.257 41.5C572.678 7.5 552.637 8.8794 549.705 7.3794C546.772 5.8794 530.641 5.3794 519.399 6.3794C508.156 7.3794 472.962 7.3794 468.074 7.3794C463.186 7.3794 440.7 7.3794 425.547 5.8794C410.394 4.3794 386.443 4.8794 376.667 5.8794C366.891 6.8794 345.872 7.8794 339.029 8.8794C332.185 9.8794 291.614 3.3794 258.864 6.8794C226.114 10.3794 146.439 3.37939 125.42 3.37939C104.401 3.37939 73.6063 3.37942 64.8078 4.37942C56.0093 5.37942 56.0089 1.87942 26.6804 3.37942C-2.64799 4.87942 2.15001 28.0003 4.68411 45.5003Z" stroke="black" stroke-width="5"/>
    </g>
</svg>
